<?xml version="1.0"?>
<svg xmlns="http://www.w3.org/2000/svg" xmlns:xlink="http://www.w3.org/1999/xlink" version="1.1" id="Capa_1" x="0px" y="0px" viewBox="0 0 512 512" style="enable-background:new 0 0 512 512;" xml:space="preserve" width="512px" height="512px" class=""><g><g>
	<g>
		<g>
			<path d="M501.333,85.333c5.888,0,10.667-4.779,10.667-10.667v-64C512,4.779,507.221,0,501.333,0H10.667C4.779,0,0,4.779,0,10.667     v64c0,5.888,4.779,10.667,10.667,10.667h10.667v341.333H10.667C4.779,426.667,0,431.445,0,437.333v64     C0,507.221,4.779,512,10.667,512h490.667c5.888,0,10.667-4.779,10.667-10.667v-64c0-5.888-4.779-10.667-10.667-10.667h-10.667     V85.333H501.333z M298.667,490.667h-85.333v-128h85.333V490.667z M480,448h10.667v42.667H320V352     c0-5.888-4.779-10.667-10.667-10.667H202.667c-5.888,0-10.667,4.779-10.667,10.667v138.667H21.333V448H32     c5.888,0,10.667-4.779,10.667-10.667V74.667C42.667,68.779,37.888,64,32,64H21.333V21.333h469.333V64H480     c-5.888,0-10.667,4.779-10.667,10.667v362.667C469.333,443.221,474.112,448,480,448z" data-original="#000000" class="active-path" data-old_color="#000000" fill="#FFFFFF"/>
			<path d="M416,85.333h-64c-5.888,0-10.667,4.779-10.667,10.667v64c0,5.888,4.779,10.667,10.667,10.667h64     c5.888,0,10.667-4.779,10.667-10.667V96C426.667,90.112,421.888,85.333,416,85.333z M405.333,149.333h-42.667v-42.667h42.667     V149.333z" data-original="#000000" class="active-path" data-old_color="#000000" fill="#FFFFFF"/>
			<path d="M288,85.333h-64c-5.888,0-10.667,4.779-10.667,10.667v64c0,5.888,4.779,10.667,10.667,10.667h64     c5.888,0,10.667-4.779,10.667-10.667V96C298.667,90.112,293.888,85.333,288,85.333z M277.333,149.333h-42.667v-42.667h42.667     V149.333z" data-original="#000000" class="active-path" data-old_color="#000000" fill="#FFFFFF"/>
			<path d="M160,85.333H96c-5.888,0-10.667,4.779-10.667,10.667v64c0,5.888,4.779,10.667,10.667,10.667h64     c5.888,0,10.667-4.779,10.667-10.667V96C170.667,90.112,165.888,85.333,160,85.333z M149.333,149.333h-42.667v-42.667h42.667     V149.333z" data-original="#000000" class="active-path" data-old_color="#000000" fill="#FFFFFF"/>
			<path d="M416,213.333h-64c-5.888,0-10.667,4.779-10.667,10.667v64c0,5.888,4.779,10.667,10.667,10.667h64     c5.888,0,10.667-4.779,10.667-10.667v-64C426.667,218.112,421.888,213.333,416,213.333z M405.333,277.333h-42.667v-42.667h42.667     V277.333z" data-original="#000000" class="active-path" data-old_color="#000000" fill="#FFFFFF"/>
			<path d="M416,341.333h-64c-5.888,0-10.667,4.779-10.667,10.667v64c0,5.888,4.779,10.667,10.667,10.667h64     c5.888,0,10.667-4.779,10.667-10.667v-64C426.667,346.112,421.888,341.333,416,341.333z M405.333,405.333h-42.667v-42.667h42.667     V405.333z" data-original="#000000" class="active-path" data-old_color="#000000" fill="#FFFFFF"/>
			<path d="M288,213.333h-64c-5.888,0-10.667,4.779-10.667,10.667v64c0,5.888,4.779,10.667,10.667,10.667h64     c5.888,0,10.667-4.779,10.667-10.667v-64C298.667,218.112,293.888,213.333,288,213.333z M277.333,277.333h-42.667v-42.667h42.667     V277.333z" data-original="#000000" class="active-path" data-old_color="#000000" fill="#FFFFFF"/>
			<path d="M160,213.333H96c-5.888,0-10.667,4.779-10.667,10.667v64c0,5.888,4.779,10.667,10.667,10.667h64     c5.888,0,10.667-4.779,10.667-10.667v-64C170.667,218.112,165.888,213.333,160,213.333z M149.333,277.333h-42.667v-42.667h42.667     V277.333z" data-original="#000000" class="active-path" data-old_color="#000000" fill="#FFFFFF"/>
			<path d="M160,341.333H96c-5.888,0-10.667,4.779-10.667,10.667v64c0,5.888,4.779,10.667,10.667,10.667h64     c5.888,0,10.667-4.779,10.667-10.667v-64C170.667,346.112,165.888,341.333,160,341.333z M149.333,405.333h-42.667v-42.667h42.667     V405.333z" data-original="#000000" class="active-path" data-old_color="#000000" fill="#FFFFFF"/>
		</g>
	</g>
</g></g> </svg>
