<?xml version="1.0"?>
<svg xmlns="http://www.w3.org/2000/svg" id="Capa_1" enable-background="new 0 0 509.095 509.095" height="512px" viewBox="0 0 509.095 509.095" width="512px"><g><g><path d="m378.646 26.706c0-7.224-5.813-13.1-12.957-13.1h-32.728c-2.98 0-5.678 1.765-6.872 4.495l-3.045 6.963-2.916-6.884c-1.175-2.772-3.895-4.574-6.906-4.574h-25.49c-5.621-8.208-15.059-13.606-25.738-13.606h-47.834c-4.142 0-7.5 3.357-7.5 7.5s3.358 7.5 7.5 7.5h47.834c8.921 0 16.179 7.258 16.179 16.179v43.782c0 8.981-7.308 16.288-16.289 16.288-19.609 0-35.562 15.953-35.562 35.562v42.377c0 6.788-5.522 12.311-12.311 12.311s-12.311-5.522-12.311-12.311v-72.563c0-17.664-14.371-32.035-32.035-32.035h-19.978c-2.338 0-4.24-1.901-4.24-4.239v-29.172c0-8.921 7.258-16.179 16.179-16.179h20.57c4.142 0 7.5-3.357 7.5-7.5s-3.358-7.5-7.5-7.5h-20.57c-17.192 0-31.179 13.986-31.179 31.179v29.172c0 7.541 4.372 14.064 10.705 17.217v147.054c0 17.654 6.336 34.752 17.842 48.142 11.505 13.391 27.453 22.229 44.906 24.887 6.829 1.041 11.785 6.809 11.785 13.716v38.007l-10.637 10.638c-9.668 9.668-14.992 22.521-14.992 36.193v53.745c0 32.613 26.533 59.146 59.146 59.146h21.395c32.613 0 59.146-26.533 59.146-59.146v-10.157c0-4.143-3.357-7.5-7.5-7.5s-7.5 3.357-7.5 7.5v10.157c0 24.343-19.804 44.146-44.146 44.146h-21.395c-24.342 0-44.146-19.804-44.146-44.146v-53.745c0-9.665 3.764-18.752 10.599-25.587l12.834-12.834c1.407-1.407 2.197-3.314 2.197-5.304v-41.113c0-14.374-10.314-26.379-24.526-28.544-13.909-2.119-26.619-9.163-35.788-19.834-4.878-5.677-8.576-12.195-10.982-19.166h201.02c-2.406 6.971-6.105 13.489-10.982 19.166-9.169 10.671-21.879 17.715-35.789 19.834-14.211 2.165-24.525 14.169-24.525 28.544v41.113c0 1.989.79 3.896 2.196 5.304l12.834 12.833c6.835 6.836 10.6 15.924 10.6 25.588v11.625c0 4.143 3.357 7.5 7.5 7.5s7.5-3.357 7.5-7.5v-11.625c0-13.671-5.324-26.524-14.992-36.194l-10.638-10.637v-38.007c0-6.907 4.956-12.675 11.784-13.716 17.453-2.658 33.401-11.496 44.907-24.887 11.506-13.39 17.842-30.487 17.842-48.142v-25.537c0-4.143-3.357-7.5-7.5-7.5s-7.5 3.357-7.5 7.5v25.537c0 1.406-.064 2.806-.164 4.2h-207.166c-.1-1.395-.164-2.794-.164-4.2v-72.68c0-.399.325-.725.724-.725h29.824v17.971c0 15.06 12.251 27.311 27.311 27.311s27.311-12.251 27.311-27.311v-17.971h121.6c.399 0 .725.325.725.725v15.18c0 4.143 3.357 7.5 7.5 7.5s7.5-3.357 7.5-7.5v-140.416zm-221.769 109.511c-.244 0-.482.026-.724.037v-56.664h13.513c9.393 0 17.035 7.642 17.035 17.035v39.592zm206.045 0h-27.013v-58.037c0-4.143-3.357-7.5-7.5-7.5s-7.5 3.357-7.5 7.5v58.037h-31.016v-11.553c0-4.143-3.357-7.5-7.5-7.5s-7.5 3.357-7.5 7.5v11.553h-33.571v-9.406c0-11.338 9.224-20.562 20.562-20.562 17.253 0 31.289-14.036 31.289-31.288v-43.782c0-.867-.045-1.723-.115-2.572h15.197l7.774 18.352c1.169 2.759 3.867 4.557 6.863 4.574h.043c2.979 0 5.677-1.764 6.872-4.495l8.061-18.431h25.778v107.647c-.241-.012-.479-.037-.724-.037z" data-original="#000000" class="active-path" data-old_color="#000000" fill="#424B63"/><path d="m232.306 412.717v22.186c0 15.491 12.603 28.094 28.094 28.094s28.094-12.603 28.094-28.094v-22.186c0-15.491-12.603-28.094-28.094-28.094s-28.094 12.603-28.094 28.094zm41.187 0v22.186c0 7.22-5.874 13.094-13.094 13.094s-13.094-5.874-13.094-13.094v-22.186c0-7.22 5.874-13.094 13.094-13.094s13.094 5.874 13.094 13.094z" data-original="#000000" class="active-path" data-old_color="#000000" fill="#424B63"/></g></g> </svg>
