<?xml version="1.0"?>
<svg xmlns="http://www.w3.org/2000/svg" height="512px" viewBox="0 0 60 48" width="512px" class=""><g><g id="Page-1" fill="none" fill-rule="evenodd"><g id="007---Landline-Phone" fill="rgb(0,0,0)" fill-rule="nonzero"><path id="Shape" d="m3.477 21.591c.48506805 1.4718349 2.01429666 2.3291232 3.523 1.975l4.605-1.066-9.145 14.481c-.29944016.4796768-.45877344 1.0335331-.46 1.599v6.42c0 1.6568542 1.34314575 3 3 3h50c1.6568542 0 3-1.3431458 3-3v-6.42c-.0021329-.566211-.1628757-1.1204965-.464-1.6l-9.136-14.48 4.6 1.066c.2246339.051908.4544467.0780765.685.078 1.2785731.0038372 2.4163079-.810499 2.825-2.022l3.333-9c.3963405-1.1895769.0110603-2.5001678-.966-3.286-4.371-3.489-13.939-9.336-28.877-9.336s-24.506 5.847-28.88 9.332c-.9835458.795266-1.36475842 2.1207191-.954 3.317zm52.364 16.447c.1025682.1622764.1576475.3500312.159.542v6.42c0 .5522847-.4477153 1-1 1h-50c-.55228475 0-1-.4477153-1-1v-6.42c.00105587-.1895698.05471466-.3751253.155-.536l10.22-16.181 2.3-.531c1.3639097-.3095947 2.3301878-1.5244037 2.325-2.923v-4.47c-.0006329-.3220109.1538375-.6246239.415-.813 3.1028263-2.1480335 6.8130357-3.24374584 10.585-3.126 3.7719643-.11774584 7.4821737.9779665 10.585 3.126.2611625.1883761.4156329.4909891.415.813v4.47c-.0049058 1.3987093.961147 2.6136505 2.325 2.924l2.3.53zm-53.475-27.138c3.358-2.679 12.771-8.9 27.634-8.9s24.276 6.221 27.634 8.9c.3148878.253198.4436465.6727532.325 1.059l-3.332 9c-.1627463.4901146-.6719271.7756892-1.175.659l-9.678-2.234c-.4547666-.1032044-.7766498-.5086774-.774-.975v-4.47c-.0036066-.9560244-.4589363-1.8540769-1.228-2.422-3.4464651-2.40201267-7.5727243-3.6347729-11.772-3.517-4.1994618-.1180475-8.3259046 1.11511814-11.772 3.518-.7691558.5673969-1.2245538 1.4652134-1.228 2.421v4.47c.0021794.4659489-.3196007.8708764-.774.974l-9.678 2.234c-.51465694.1156535-1.03154305-.1846286-1.186-.689l-3.309-8.942c-.13164153-.391867-.00700719-.8243043.313-1.086z" data-original="#000000" class="active-path" data-old_color="#000000" fill="#FFFFFF"/><path id="Shape" d="m23 23h14c1.1045695 0 2-.8954305 2-2v-5c0-1.1045695-.8954305-2-2-2h-14c-1.1045695 0-2 .8954305-2 2v5c0 1.1045695.8954305 2 2 2zm0-7h14v5h-14z" data-original="#000000" class="active-path" data-old_color="#000000" fill="#FFFFFF"/><path id="Shape" d="m39 25h-18c-1.0213203-.0023737-1.9730069.5174139-2.523 1.378l-6.429 10c-.5932388.9230351-.6352389 2.0963036-.1095187 3.0593946.5257202.9630911 1.535283 1.5623455 2.6325187 1.5626054h30.858c1.0972357-.0002599 2.1067985-.5995143 2.6325187-1.5626054.5257202-.963091.4837201-2.1363595-.1095187-3.0593946l-6.429-10c-.5502575-.8603028-1.5017751-1.3799981-2.523-1.378zm-21.118 6h4.649l-.857 3h-5.721zm6.73 0h4.388v3h-5.245zm4.388-4v2h-3.817l.572-2zm5.245 0 .572 2h-3.817v-2zm-5.245 9v3h-6.674l.857-3zm2 0h5.817l.857 3h-6.674zm0-2v-3h4.388l.857 3zm6.469-3h4.649l1.929 3h-5.721zm2.373-3.541.99 1.541h-3.932l-.572-2.0000005 2.672.0000005c.3405084-.0003327.657785.1726245.842.459zm-18.842-.459 2.674-.0000005-.574 2.0000005h-3.932l.99-1.541c.184215-.2863755.5014916-.4593327.842-.459zm-7.307 11.479c-.1795071-.3200237-.1656223-.7134279.036-1.02l.938-1.459h6.433l-.857 3h-5.672c-.3670988.0043035-.7058774-.1967257-.878-.521zm32.614 0c-.1721226.3242743-.5109012.5253035-.878.521h-5.674l-.855-3h6.435l.938 1.459c.2009931.3069504.2141063.7003463.034 1.02z" data-original="#000000" class="active-path" data-old_color="#000000" fill="#FFFFFF"/></g></g></g> </svg>
